# xmcd
# 
# Track frame offsets:
#     183
#     77583
#     117633
#     174933
# 
# Disc length: 2898
# 
# Revision: 4
# Processed by: cddbd v1.5.2PL0 Copyright (c) Steve Scherf et al.
# Submitted via: fre:ac v1.0.31
# 
DISCID=280b5004
DTITLE=Brahms - Complete Brahms Edition Disc 7
DYEAR=1977
DGENRE=Classical
TTITLE0=Klavierkonzert Nr. 2 B-dur op. 83 - 1. Allegro non troppo
TTITLE1=Klavierkonzert Nr. 2 B-dur op. 83 - 2. Allegro appassionato
TTITLE2=Klavierkonzert Nr. 2 B-dur op. 83 - 3. Andante
TTITLE3=Klavierkonzert Nr. 2 B-dur op. 83 - 4. Allegretto grazioso
EXTD=Wiener Philharmoniker
EXTT0=
EXTT1=
EXTT2=
EXTT3=
PLAYORDER=
